HIERARCHY
ROOT Hips
{
	OFFSET 0.000000 0.000000 0.000000
	CHANNELS 6 Xposition Yposition Zposition Xrotation Yrotation Zrotation
	JOINT LeftUpLeg_virtual
	{
		OFFSET 0.000000 0.000000 0.000000
		CHANNELS 3 Xrotation Yrotation Zrotation
		JOINT LeftUpLeg
		{
			OFFSET 13.026900 -6.336304 -1.092800
			CHANNELS 3 Xrotation Yrotation Zrotation
			JOINT LeftLeg
			{
				OFFSET 0.524474 -46.096886 9.782700
				CHANNELS 3 Xrotation Yrotation Zrotation
				JOINT LeftFoot
				{
					OFFSET -0.524474 -53.427422 -12.948200
					CHANNELS 3 Xrotation Yrotation Zrotation
					JOINT LeftToeBase
					{
						OFFSET 0.192200 -14.009700 16.364100
						CHANNELS 3 Xrotation Yrotation Zrotation
						JOINT LeftToe_End
						{
							OFFSET -1.784700 -0.561700 9.474800
							CHANNELS 3 Xrotation Yrotation Zrotation
							End Site
							{
								OFFSET 0 0 0
							}
						}
					}
				}
			}
		}
	}
	JOINT RightUpLeg_virtual
	{
		OFFSET 0.000000 0.000000 0.000000
		CHANNELS 3 Xrotation Yrotation Zrotation
		JOINT RightUpLeg
		{
			OFFSET -12.883000 -6.336304 -1.092800
			CHANNELS 3 Xrotation Yrotation Zrotation
			JOINT RightLeg
			{
				OFFSET -0.524587 -46.096825 9.782800
				CHANNELS 3 Xrotation Yrotation Zrotation
				JOINT RightFoot
				{
					OFFSET 0.524587 -53.427383 -12.948300
					CHANNELS 3 Xrotation Yrotation Zrotation
					JOINT RightToeBase
					{
						OFFSET -0.192200 -14.009700 16.364100
						CHANNELS 3 Xrotation Yrotation Zrotation
						JOINT RightToe_End
						{
							OFFSET 1.784700 -0.561700 9.474800
							CHANNELS 3 Xrotation Yrotation Zrotation
							End Site
							{
								OFFSET 0 0 0
							}
						}
					}
				}
			}
		}
	}
	JOINT Spine_virtual
	{
		OFFSET 0.000000 0.000000 0.000000
		CHANNELS 3 Xrotation Yrotation Zrotation
		JOINT Spine
		{
			OFFSET 0.072000 7.257294 -0.789700
			CHANNELS 3 Xrotation Yrotation Zrotation
			JOINT Spine1
			{
				OFFSET 0.000000 12.508769 -0.658067
				CHANNELS 3 Xrotation Yrotation Zrotation
				JOINT Spine1_split
				{
					OFFSET 0.000000 12.508769 -0.658067
					CHANNELS 3 Xrotation Yrotation Zrotation
					JOINT Spine2
					{
						OFFSET 0.000000 12.508769 -0.658067
						CHANNELS 3 Xrotation Yrotation Zrotation
						JOINT Neck_virtual
						{
							OFFSET 0.000000 0.000000 0.000000
							CHANNELS 3 Xrotation Yrotation Zrotation
							JOINT Neck
							{
								OFFSET 0.000000 14.033295 7.520400
								CHANNELS 3 Xrotation Yrotation Zrotation
								JOINT Head
								{
									OFFSET 0.000000 8.198502 5.703100
									CHANNELS 3 Xrotation Yrotation Zrotation
									JOINT HeadTop_End
									{
										OFFSET 0.000000 17.760803 13.332701
										CHANNELS 3 Xrotation Yrotation Zrotation
										End Site
										{
											OFFSET 0 0 0
										}
									}
								}
							}
						}
						JOINT LeftShoulder_virtual
						{
							OFFSET 0.000000 0.000000 0.000000
							CHANNELS 3 Xrotation Yrotation Zrotation
							JOINT LeftShoulder
							{
								OFFSET 6.292450 5.785301 -0.669000
								CHANNELS 3 Xrotation Yrotation Zrotation
								JOINT LeftShoulder_split
								{
									OFFSET 6.292450 5.785301 -0.669000
									CHANNELS 3 Xrotation Yrotation Zrotation
									JOINT LeftArm
									{
										OFFSET 13.907140 -6.093903 1.965100
										CHANNELS 3 Xrotation Yrotation Zrotation
										JOINT LeftForeArm
										{
											OFFSET 34.140198 0.000000 0.000000
											CHANNELS 3 Xrotation Yrotation Zrotation
											JOINT LeftHand
											{
												OFFSET 40.960209 0.000000 0.000000
												CHANNELS 3 Xrotation Yrotation Zrotation
												End Site
												{
													OFFSET 0 0 0
												}
											}
										}
									}
								}
							}
						}
						JOINT RightShoulder_virtual
						{
							OFFSET 0.000000 0.000000 0.000000
							CHANNELS 3 Xrotation Yrotation Zrotation
							JOINT RightShoulder
							{
								OFFSET -6.292450 5.785301 -0.669000
								CHANNELS 3 Xrotation Yrotation Zrotation
								JOINT RightShoulder_split
								{
									OFFSET -6.292450 5.785301 -0.669000
									CHANNELS 3 Xrotation Yrotation Zrotation
									JOINT RightArm
									{
										OFFSET -13.907140 -6.093903 1.965100
										CHANNELS 3 Xrotation Yrotation Zrotation
										JOINT RightForeArm
										{
											OFFSET -34.140198 0.000000 0.000000
											CHANNELS 3 Xrotation Yrotation Zrotation
											JOINT RightHand
											{
												OFFSET -40.960209 0.000000 0.000000
												CHANNELS 3 Xrotation Yrotation Zrotation
												End Site
												{
													OFFSET 0 0 0
												}
											}
										}
									}
								}
							}
						}
					}
				}
			}
		}
	}
}
MOTION
Frames: 6
Frame Time: 0.03333333
6.141727 98.281487 -10.352650 0.000000 0.000000 0.000000 8.120608 0.592483 2.830862 -51.542090 0.200391 17.678398 40.298762 -2.011085 4.648858 9.317344 3.848018 -25.426218 -0.509495 -2.745728 0.455550 0.000000 0.000000 0.000000 8.623258 -0.442312 2.817932 -32.655531 -10.648796 -28.402795 36.713144 16.594173 -4.765170 -6.151346 -16.642273 37.471876 3.784712 6.249670 -8.006962 0.000000 0.000000 0.000000 8.237975 6.501174 1.366037 6.102265 0.589322 -0.729409 6.791194 -0.240153 -0.695937 0.051578 0.141869 -0.143925 0.000000 0.000000 0.000000 7.141356 3.087532 0.136400 7.269854 6.379053 -5.898525 -48.810636 -29.612893 -26.020617 0.000000 0.000000 0.000000 7.913180 1.010340 0.512350 2.706043 -25.484189 9.053601 3.357457 -6.335581 -4.078986 -74.937045 -33.647042 -23.978159 -10.596558 -12.850030 -1.806955 0.000000 0.000000 0.000000 6.322189 0.287966 -0.231931 -0.872658 23.067437 -12.504576 4.797889 -3.447661 5.469008 -35.848384 45.420198 19.840557 -14.046005 25.154516 5.129878 0.000000 0.000000 0.000000 
6.211036 97.859871 -10.188320 0.000000 0.000000 0.000000 8.160538 1.224662 2.557584 -52.388688 -0.192735 17.660291 41.035882 -2.066373 4.558722 9.146607 3.592665 -25.273179 -0.883212 -2.784941 0.515579 0.000000 0.000000 0.000000 8.706454 0.262002 2.516825 -32.365439 -10.684970 -28.304319 37.059585 16.604547 -4.915353 -6.436014 -16.940251 37.661636 3.738621 6.203819 -8.077875 0.000000 0.000000 0.000000 8.595176 6.663376 1.154358 5.943902 0.525381 -0.466743 6.714374 -0.186389 -0.781660 0.042973 0.202242 -0.134784 0.000000 0.000000 0.000000 7.045436 3.170538 0.210815 6.729603 6.331355 -5.109134 -48.129734 -27.935837 -27.908826 0.000000 0.000000 0.000000 7.774937 1.196186 0.485902 2.082702 -24.639709 8.079011 4.478532 -7.392360 -3.037879 -74.814347 -33.568836 -22.923450 -9.556599 -13.266911 -1.423931 0.000000 0.000000 0.000000 6.087189 0.406258 -0.244907 -1.473571 23.398577 -12.348359 6.251362 -3.931091 4.752619 -37.958496 45.285489 21.963139 -15.259167 26.696812 5.458650 0.000000 0.000000 0.000000 
6.279061 97.436737 -10.036793 0.000000 0.000000 0.000000 8.173061 1.680715 2.249631 -53.086371 -0.635559 17.635309 41.943577 -2.075083 4.491321 8.942778 3.446434 -24.798609 -1.303126 -2.846192 0.541129 0.000000 0.000000 0.000000 8.717854 0.855124 2.152803 -32.062909 -10.741344 -28.168165 37.459401 16.569554 -5.034024 -6.619773 -17.207374 37.776000 3.465772 6.171523 -8.001470 0.000000 0.000000 0.000000 8.954722 6.740914 0.861695 5.757397 0.590626 -0.092360 6.786379 -0.014657 -0.958510 0.081250 0.186519 -0.118533 0.000000 0.000000 0.000000 6.968250 3.339461 0.136317 5.947653 6.092887 -3.950334 -47.763721 -25.716892 -29.533482 0.000000 0.000000 0.000000 7.740685 1.394590 0.204311 1.366645 -23.674250 6.537526 5.363491 -8.052147 -1.602380 -75.009486 -34.109497 -23.096992 -8.246415 -12.243161 -0.992942 0.000000 0.000000 0.000000 6.003441 0.707050 -0.308876 -2.095752 23.578187 -11.859210 6.984937 -4.415053 4.001168 -39.033319 44.876843 23.657870 -16.627327 27.566686 5.881889 0.000000 0.000000 0.000000 
6.357533 97.042885 -9.905437 0.000000 0.000000 0.000000 8.113307 1.888330 1.953138 -53.575256 -1.064796 17.632705 42.950921 -2.100680 4.461493 8.794856 3.361007 -24.179730 -1.737350 -2.910596 0.516091 0.000000 0.000000 0.000000 8.631493 1.171723 1.797877 -31.872224 -10.859646 -28.068784 37.810479 16.491188 -5.100513 -6.705771 -17.390877 37.782448 3.150211 6.143499 -7.810577 0.000000 0.000000 0.000000 9.133345 6.702359 0.569006 5.611446 0.797760 0.293775 6.995400 0.270956 -1.179501 0.135772 0.133510 -0.113784 0.000000 0.000000 0.000000 6.986723 3.596807 -0.049316 5.020432 5.645026 -2.572094 -47.901319 -23.506250 -30.827454 0.000000 0.000000 0.000000 7.835302 1.607418 -0.248179 0.673816 -22.759661 4.822823 5.873115 -8.141693 -0.325171 -75.311189 -35.557801 -23.718505 -7.152430 -10.128743 -0.722685 0.000000 0.000000 0.000000 6.098236 1.113583 -0.374599 -2.653933 23.495762 -11.212072 7.114711 -4.820249 3.285551 -38.750730 44.705791 24.661354 -18.069940 27.802852 6.372242 0.000000 0.000000 0.000000 
6.469052 96.740410 -9.878437 0.000000 0.000000 0.000000 7.949862 1.824804 1.726425 -53.812294 -1.310900 17.681510 43.853332 -2.173670 4.448851 8.705085 3.286353 -23.525825 -2.184325 -2.979847 0.473388 0.000000 0.000000 0.000000 8.426559 1.147751 1.546201 -31.790207 -11.023865 -28.050498 37.975722 16.359712 -5.096984 -6.748339 -17.487518 37.641449 2.953796 6.118205 -7.577775 0.000000 0.000000 0.000000 8.999021 6.527928 0.380747 5.528960 1.123210 0.577618 7.324528 0.656291 -1.394905 0.181189 0.087033 -0.101937 0.000000 0.000000 0.000000 7.142237 3.930457 -0.287912 4.073155 5.050568 -1.160828 -48.407176 -21.705074 -31.752914 0.000000 0.000000 0.000000 8.013700 1.873440 -0.724037 0.097344 -22.154948 3.323684 6.358905 -8.079385 0.592270 -75.142176 -37.386260 -23.925827 -6.605658 -8.503535 -0.686423 0.000000 0.000000 0.000000 6.328625 1.554466 -0.444587 -3.095913 23.097391 -10.545728 6.730224 -5.106365 2.971090 -37.383261 44.825377 25.126174 -19.522836 28.085390 7.037392 0.000000 0.000000 0.000000 
6.581378 96.594002 -9.986462 0.000000 0.000000 0.000000 7.737093 1.531354 1.599311 -53.845578 -1.280311 17.798042 44.456441 -2.287381 4.428646 8.641479 3.210869 -22.917552 -2.545194 -3.054105 0.446889 0.000000 0.000000 0.000000 8.151740 0.870678 1.425768 -31.719347 -11.146885 -28.073049 37.882995 16.190557 -5.035832 -6.706267 -17.498398 37.440280 2.869359 6.107924 -7.374970 0.000000 0.000000 0.000000 8.617287 6.252782 0.328575 5.438197 1.515361 0.679492 7.720604 1.094242 -1.554008 0.178498 0.036574 -0.084834 0.000000 0.000000 0.000000 7.442943 4.316674 -0.518945 3.206802 4.366751 0.144336 -48.962594 -20.741633 -32.337975 0.000000 0.000000 0.000000 8.202067 2.201175 -1.108794 -0.335806 -21.995782 2.299974 6.970293 -8.140361 1.290627 -74.445954 -38.639821 -23.288947 -6.548283 -8.573030 -0.797738 0.000000 0.000000 0.000000 6.642481 1.979242 -0.486092 -3.451639 22.345232 -10.016336 5.989544 -5.253467 2.786353 -35.402083 44.977769 25.178630 -20.902063 28.973710 7.924455 0.000000 0.000000 0.000000 
